<svg version="1.1" viewBox="0.0 0.0 600.0 371.0" fill="none" stroke="none" stroke-linecap="square" stroke-miterlimit="10" width="600" height="371" xmlns:xlink="http://www.w3.org/1999/xlink" xmlns="http://www.w3.org/2000/svg"><path fill="#ffffff" d="M0 0L600.0 0L600.0 371.0L0 371.0L0 0Z" fill-rule="nonzero"/><path stroke="#333333" stroke-width="1.0" stroke-linecap="butt" d="M70.5 332.5L581.5 332.5" fill-rule="nonzero"/><path stroke="#cccccc" stroke-width="1.0" stroke-linecap="butt" d="M70.5 276.5L581.5 276.5" fill-rule="nonzero"/><path stroke="#cccccc" stroke-width="1.0" stroke-linecap="butt" d="M70.5 220.5L581.5 220.5" fill-rule="nonzero"/><path stroke="#cccccc" stroke-width="1.0" stroke-linecap="butt" d="M70.5 164.5L581.5 164.5" fill-rule="nonzero"/><path stroke="#cccccc" stroke-width="1.0" stroke-linecap="butt" d="M70.5 108.5L581.5 108.5" fill-rule="nonzero"/><path stroke="#cccccc" stroke-width="1.0" stroke-linecap="butt" d="M70.5 51.5L581.5 51.5" fill-rule="nonzero"/><clipPath id="id_0"><path d="M70.55 51.916668L581.45 51.916668L581.45 332.45L70.55 332.45L70.55 51.916668Z" clip-rule="nonzero"/></clipPath><path stroke="#000000" stroke-width="2.0" stroke-linecap="butt" stroke-opacity="0.0" clip-path="url(#id_0)" d="M137.0 332.0L114.0 332.0L114.0 105.0C114.0 103.89543 114.89543 103.0 116.0 103.0L135.0 103.0C136.10457 103.0 137.0 103.89543 137.0 105.0Z" fill-rule="nonzero"/><path fill="#4285f4" clip-path="url(#id_0)" d="M137.0 332.0L114.0 332.0L114.0 105.0C114.0 103.89543 114.89543 103.0 116.0 103.0L135.0 103.0C136.10457 103.0 137.0 103.89543 137.0 105.0Z" fill-rule="nonzero"/><path stroke="#000000" stroke-width="2.0" stroke-linecap="butt" stroke-opacity="0.0" clip-path="url(#id_0)" d="M254.0 332.0L231.0 332.0L231.0 287.0C231.0 285.89542 231.89543 285.0 233.0 285.0L252.0 285.0C253.10457 285.0 254.0 285.89542 254.0 287.0Z" fill-rule="nonzero"/><path fill="#4285f4" clip-path="url(#id_0)" d="M254.0 332.0L231.0 332.0L231.0 287.0C231.0 285.89542 231.89543 285.0 233.0 285.0L252.0 285.0C253.10457 285.0 254.0 285.89542 254.0 287.0Z" fill-rule="nonzero"/><path stroke="#000000" stroke-width="2.0" stroke-linecap="butt" stroke-opacity="0.0" clip-path="url(#id_0)" d="M372.0 332.0L349.0 332.0L349.0 184.0C349.0 182.89543 349.89542 182.0 351.0 182.0L370.0 182.0C371.10458 182.0 372.0 182.89543 372.0 184.0Z" fill-rule="nonzero"/><path fill="#4285f4" clip-path="url(#id_0)" d="M372.0 332.0L349.0 332.0L349.0 184.0C349.0 182.89543 349.89542 182.0 351.0 182.0L370.0 182.0C371.10458 182.0 372.0 182.89543 372.0 184.0Z" fill-rule="nonzero"/><path stroke="#000000" stroke-width="2.0" stroke-linecap="butt" stroke-opacity="0.0" clip-path="url(#id_0)" d="M489.0 332.0L466.0 332.0L466.0 122.0C466.0 120.89543 466.89542 120.0 468.0 120.0L487.0 120.0C488.10458 120.0 489.0 120.89543 489.0 122.0Z" fill-rule="nonzero"/><path fill="#4285f4" clip-path="url(#id_0)" d="M489.0 332.0L466.0 332.0L466.0 122.0C466.0 120.89543 466.89542 120.0 468.0 120.0L487.0 120.0C488.10458 120.0 489.0 120.89543 489.0 122.0Z" fill-rule="nonzero"/><path stroke="#000000" stroke-width="2.0" stroke-linecap="butt" stroke-opacity="0.0" clip-path="url(#id_0)" d="M162.0 332.0L139.0 332.0L139.0 151.0C139.0 149.89543 139.89543 149.0 141.0 149.0L160.0 149.0C161.10457 149.0 162.0 149.89543 162.0 151.0Z" fill-rule="nonzero"/><path fill="#ea4335" clip-path="url(#id_0)" d="M162.0 332.0L139.0 332.0L139.0 151.0C139.0 149.89543 139.89543 149.0 141.0 149.0L160.0 149.0C161.10457 149.0 162.0 149.89543 162.0 151.0Z" fill-rule="nonzero"/><path stroke="#000000" stroke-width="2.0" stroke-linecap="butt" stroke-opacity="0.0" clip-path="url(#id_0)" d="M279.0 332.0L256.0 332.0L256.0 332.0L279.0 332.0Z" fill-rule="nonzero"/><path fill="#ea4335" clip-path="url(#id_0)" d="M279.0 332.0L256.0 332.0L256.0 332.0L279.0 332.0Z" fill-rule="nonzero"/><path stroke="#000000" stroke-width="2.0" stroke-linecap="butt" stroke-opacity="0.0" clip-path="url(#id_0)" d="M397.0 332.0L374.0 332.0L374.0 332.0L397.0 332.0Z" fill-rule="nonzero"/><path fill="#ea4335" clip-path="url(#id_0)" d="M397.0 332.0L374.0 332.0L374.0 332.0L397.0 332.0Z" fill-rule="nonzero"/><path stroke="#000000" stroke-width="2.0" stroke-linecap="butt" stroke-opacity="0.0" clip-path="url(#id_0)" d="M514.0 332.0L491.0 332.0L491.0 332.0L514.0 332.0Z" fill-rule="nonzero"/><path fill="#ea4335" clip-path="url(#id_0)" d="M514.0 332.0L491.0 332.0L491.0 332.0L514.0 332.0Z" fill-rule="nonzero"/><path stroke="#000000" stroke-width="2.0" stroke-linecap="butt" stroke-opacity="0.0" clip-path="url(#id_0)" d="M187.0 332.0L164.0 332.0L164.0 289.0C164.0 287.89542 164.89543 287.0 166.0 287.0L185.0 287.0C186.10457 287.0 187.0 287.89542 187.0 289.0Z" fill-rule="nonzero"/><path fill="#fbbc04" clip-path="url(#id_0)" d="M187.0 332.0L164.0 332.0L164.0 289.0C164.0 287.89542 164.89543 287.0 166.0 287.0L185.0 287.0C186.10457 287.0 187.0 287.89542 187.0 289.0Z" fill-rule="nonzero"/><path stroke="#000000" stroke-width="2.0" stroke-linecap="butt" stroke-opacity="0.0" clip-path="url(#id_0)" d="M304.0 332.0L281.0 332.0L281.0 330.0C281.0 328.89542 281.89542 328.0 283.0 328.0L302.0 328.0C303.10458 328.0 304.0 328.89542 304.0 330.0Z" fill-rule="nonzero"/><path fill="#fbbc04" clip-path="url(#id_0)" d="M304.0 332.0L281.0 332.0L281.0 330.0C281.0 328.89542 281.89542 328.0 283.0 328.0L302.0 328.0C303.10458 328.0 304.0 328.89542 304.0 330.0Z" fill-rule="nonzero"/><path stroke="#000000" stroke-width="2.0" stroke-linecap="butt" stroke-opacity="0.0" clip-path="url(#id_0)" d="M422.0 332.0L399.0 332.0L399.0 319.0C399.0 317.89542 399.89542 317.0 401.0 317.0L420.0 317.0C421.10458 317.0 422.0 317.89542 422.0 319.0Z" fill-rule="nonzero"/><path fill="#fbbc04" clip-path="url(#id_0)" d="M422.0 332.0L399.0 332.0L399.0 319.0C399.0 317.89542 399.89542 317.0 401.0 317.0L420.0 317.0C421.10458 317.0 422.0 317.89542 422.0 319.0Z" fill-rule="nonzero"/><path stroke="#000000" stroke-width="2.0" stroke-linecap="butt" stroke-opacity="0.0" clip-path="url(#id_0)" d="M539.0 332.0L516.0 332.0L516.0 313.0C516.0 311.89542 516.89545 311.0 518.0 311.0L537.0 311.0C538.10455 311.0 539.0 311.89542 539.0 313.0Z" fill-rule="nonzero"/><path fill="#fbbc04" clip-path="url(#id_0)" d="M539.0 332.0L516.0 332.0L516.0 313.0C516.0 311.89542 516.89545 311.0 518.0 311.0L537.0 311.0C538.10455 311.0 539.0 311.89542 539.0 313.0Z" fill-rule="nonzero"/><path fill="#000000" d="M58.05 332.21564Q58.05 330.6844 58.3625 329.7625Q58.675 328.825 59.284374 328.325Q59.909374 327.825 60.846874 327.825Q61.534374 327.825 62.05 328.10626Q62.58125 328.3875 62.925 328.91876Q63.26875 329.4344 63.45625 330.1844Q63.64375 330.9344 63.64375 332.21564Q63.64375 333.73126 63.33125 334.65314Q63.034374 335.575 62.409374 336.09064Q61.8 336.59064 60.846874 336.59064Q59.6125 336.59064 58.89375 335.7Q58.05 334.6375 58.05 332.21564ZM59.128124 332.21564Q59.128124 334.325 59.628124 335.02814Q60.128124 335.73126 60.846874 335.73126Q61.58125 335.73126 62.065624 335.02814Q62.565624 334.325 62.565624 332.21564Q62.565624 330.09064 62.065624 329.40314Q61.58125 328.7 60.83125 328.7Q60.1125 328.7 59.675 329.3094Q59.128124 330.09064 59.128124 332.21564Z" fill-rule="nonzero"/><path fill="#000000" d="M24.596874 279.3277L24.596874 280.34332L18.909374 280.34332Q18.909374 279.96832 19.034374 279.60895Q19.253124 279.03082 19.721874 278.46832Q20.20625 277.90582 21.1125 277.17145Q22.51875 276.0152 23.003124 275.34332Q23.503124 274.67145 23.503124 274.0777Q23.503124 273.4527 23.05 273.03082Q22.596874 272.59332 21.878124 272.59332Q21.1125 272.59332 20.659374 273.04645Q20.20625 273.49957 20.190624 274.31207L19.1125 274.2027Q19.221874 272.98395 19.940624 272.35895Q20.675 271.71832 21.909374 271.71832Q23.14375 271.71832 23.8625 272.40582Q24.58125 273.09332 24.58125 274.10895Q24.58125 274.62457 24.3625 275.12457Q24.159374 275.60895 23.659374 276.17145Q23.175 276.71832 22.05 277.67145Q21.096874 278.46832 20.815624 278.7652Q20.55 279.04645 20.378124 279.3277L24.596874 279.3277ZM26.64375 280.34332L26.64375 279.1402L27.846874 279.1402L27.846874 280.34332L26.64375 280.34332ZM29.05 278.09332L30.159374 277.99957Q30.284374 278.81207 30.721874 279.21832Q31.175 279.62457 31.815624 279.62457Q32.565624 279.62457 33.096874 279.04645Q33.628124 278.46832 33.628124 277.53082Q33.628124 276.62457 33.1125 276.10895Q32.6125 275.5777 31.784374 275.5777Q31.284374 275.5777 30.8625 275.81207Q30.45625 276.04645 30.221874 276.40582L29.2375 276.28082L30.065624 271.87457L34.346874 271.87457L34.346874 272.87457L30.909374 272.87457L30.45625 275.18707Q31.221874 274.6402 32.065624 274.6402Q33.190624 274.6402 33.95625 275.42145Q34.7375 276.2027 34.7375 277.43707Q34.7375 278.59332 34.065624 279.4527Q33.2375 280.48395 31.815624 280.48395Q30.64375 280.48395 29.89375 279.8277Q29.159374 279.17145 29.05 278.09332ZM36.05 276.10895Q36.05 274.5777 36.3625 273.65582Q36.675 272.71832 37.284374 272.21832Q37.909374 271.71832 38.846874 271.71832Q39.534374 271.71832 40.05 271.99957Q40.58125 272.28082 40.925 272.81207Q41.26875 273.3277 41.45625 274.0777Q41.64375 274.8277 41.64375 276.10895Q41.64375 277.62457 41.33125 278.54645Q41.034374 279.46832 40.409374 279.98395Q39.8 280.48395 38.846874 280.48395Q37.6125 280.48395 36.89375 279.59332Q36.05 278.53082 36.05 276.10895ZM37.128124 276.10895Q37.128124 278.21832 37.628124 278.92145Q38.128124 279.62457 38.846874 279.62457Q39.58125 279.62457 40.065624 278.92145Q40.565624 278.21832 40.565624 276.10895Q40.565624 273.98395 40.065624 273.29645Q39.58125 272.59332 38.83125 272.59332Q38.1125 272.59332 37.675 273.2027Q37.128124 273.98395 37.128124 276.10895ZM43.503124 280.34332L43.503124 271.74957L49.70625 271.74957L49.70625 272.7652L44.64375 272.7652L44.64375 275.3902L49.39375 275.3902L49.39375 276.40582L44.64375 276.40582L44.64375 279.3277L49.909374 279.3277L49.909374 280.34332L43.503124 280.34332ZM53.55 278.9527L53.55 276.59332L51.221874 276.59332L51.221874 275.60895L53.55 275.60895L53.55 273.28082L54.55 273.28082L54.55 275.60895L56.89375 275.60895L56.89375 276.59332L54.55 276.59332L54.55 278.9527L53.55 278.9527ZM58.1125 272.87457L58.1125 271.85895L63.675 271.85895L63.675 272.68707Q62.8625 273.56207 62.05 275.0152Q61.253124 276.4527 60.815624 277.98395Q60.4875 279.06207 60.409374 280.34332L59.315624 280.34332Q59.33125 279.3277 59.70625 277.8902Q60.096874 276.4527 60.8 275.12457Q61.51875 273.79645 62.33125 272.87457L58.1125 272.87457Z" fill-rule="nonzero"/><path fill="#000000" d="M19.05 221.98666L20.159374 221.89291Q20.284374 222.70541 20.721874 223.11166Q21.175 223.51791 21.815624 223.51791Q22.565624 223.51791 23.096874 222.93979Q23.628124 222.36166 23.628124 221.42416Q23.628124 220.51791 23.1125 220.00229Q22.6125 219.47104 21.784374 219.47104Q21.284374 219.47104 20.8625 219.70541Q20.45625 219.93979 20.221874 220.29916L19.2375 220.17416L20.065624 215.76791L24.346874 215.76791L24.346874 216.76791L20.909374 216.76791L20.45625 219.08041Q21.221874 218.53354 22.065624 218.53354Q23.190624 218.53354 23.95625 219.31479Q24.7375 220.09604 24.7375 221.33041Q24.7375 222.48666 24.065624 223.34604Q23.2375 224.37729 21.815624 224.37729Q20.64375 224.37729 19.89375 223.72104Q19.159374 223.06479 19.05 221.98666ZM26.64375 224.23666L26.64375 223.03354L27.846874 223.03354L27.846874 224.23666L26.64375 224.23666ZM29.05 220.00229Q29.05 218.47104 29.3625 217.54916Q29.675 216.61166 30.284374 216.11166Q30.909374 215.61166 31.846874 215.61166Q32.534374 215.61166 33.05 215.89291Q33.58125 216.17416 33.925 216.70541Q34.26875 217.22104 34.45625 217.97104Q34.64375 218.72104 34.64375 220.00229Q34.64375 221.51791 34.33125 222.43979Q34.034374 223.36166 33.409374 223.87729Q32.8 224.37729 31.846874 224.37729Q30.6125 224.37729 29.89375 223.48666Q29.05 222.42416 29.05 220.00229ZM30.128124 220.00229Q30.128124 222.11166 30.628124 222.81479Q31.128124 223.51791 31.846874 223.51791Q32.58125 223.51791 33.065624 222.81479Q33.565624 222.11166 33.565624 220.00229Q33.565624 217.87729 33.065624 217.18979Q32.58125 216.48666 31.83125 216.48666Q31.1125 216.48666 30.675 217.09604Q30.128124 217.87729 30.128124 220.00229ZM36.05 220.00229Q36.05 218.47104 36.3625 217.54916Q36.675 216.61166 37.284374 216.11166Q37.909374 215.61166 38.846874 215.61166Q39.534374 215.61166 40.05 215.89291Q40.58125 216.17416 40.925 216.70541Q41.26875 217.22104 41.45625 217.97104Q41.64375 218.72104 41.64375 220.00229Q41.64375 221.51791 41.33125 222.43979Q41.034374 223.36166 40.409374 223.87729Q39.8 224.37729 38.846874 224.37729Q37.6125 224.37729 36.89375 223.48666Q36.05 222.42416 36.05 220.00229ZM37.128124 220.00229Q37.128124 222.11166 37.628124 222.81479Q38.128124 223.51791 38.846874 223.51791Q39.58125 223.51791 40.065624 222.81479Q40.565624 222.11166 40.565624 220.00229Q40.565624 217.87729 40.065624 217.18979Q39.58125 216.48666 38.83125 216.48666Q38.1125 216.48666 37.675 217.09604Q37.128124 217.87729 37.128124 220.00229ZM43.503124 224.23666L43.503124 215.64291L49.70625 215.64291L49.70625 216.65854L44.64375 216.65854L44.64375 219.28354L49.39375 219.28354L49.39375 220.29916L44.64375 220.29916L44.64375 223.22104L49.909374 223.22104L49.909374 224.23666L43.503124 224.23666ZM53.55 222.84604L53.55 220.48666L51.221874 220.48666L51.221874 219.50229L53.55 219.50229L53.55 217.17416L54.55 217.17416L54.55 219.50229L56.89375 219.50229L56.89375 220.48666L54.55 220.48666L54.55 222.84604L53.55 222.84604ZM58.1125 216.76791L58.1125 215.75229L63.675 215.75229L63.675 216.58041Q62.8625 217.45541 62.05 218.90854Q61.253124 220.34604 60.815624 221.87729Q60.4875 222.95541 60.409374 224.23666L59.315624 224.23666Q59.33125 223.22104 59.70625 221.78354Q60.096874 220.34604 60.8 219.01791Q61.51875 217.68979 62.33125 216.76791L58.1125 216.76791Z" fill-rule="nonzero"/><path fill="#000000" d="M19.1125 160.66125L19.1125 159.64563L24.675 159.64563L24.675 160.47375Q23.8625 161.34875 23.05 162.80188Q22.253124 164.23938 21.815624 165.77063Q21.4875 166.84875 21.409374 168.13L20.315624 168.13Q20.33125 167.11438 20.70625 165.67688Q21.096874 164.23938 21.8 162.91125Q22.51875 161.58313 23.33125 160.66125L19.1125 160.66125ZM26.64375 168.13L26.64375 166.92688L27.846874 166.92688L27.846874 168.13L26.64375 168.13ZM29.05 165.88L30.159374 165.78625Q30.284374 166.59875 30.721874 167.005Q31.175 167.41125 31.815624 167.41125Q32.565624 167.41125 33.096874 166.83313Q33.628124 166.255 33.628124 165.3175Q33.628124 164.41125 33.1125 163.89563Q32.6125 163.36438 31.784374 163.36438Q31.284374 163.36438 30.8625 163.59875Q30.45625 163.83313 30.221874 164.1925L29.2375 164.0675L30.065624 159.66125L34.346874 159.66125L34.346874 160.66125L30.909374 160.66125L30.45625 162.97375Q31.221874 162.42688 32.065624 162.42688Q33.190624 162.42688 33.95625 163.20813Q34.7375 163.98938 34.7375 165.22375Q34.7375 166.38 34.065624 167.23938Q33.2375 168.27063 31.815624 168.27063Q30.64375 168.27063 29.89375 167.61438Q29.159374 166.95813 29.05 165.88ZM36.05 163.89563Q36.05 162.36438 36.3625 161.4425Q36.675 160.505 37.284374 160.005Q37.909374 159.505 38.846874 159.505Q39.534374 159.505 40.05 159.78625Q40.58125 160.0675 40.925 160.59875Q41.26875 161.11438 41.45625 161.86438Q41.64375 162.61438 41.64375 163.89563Q41.64375 165.41125 41.33125 166.33313Q41.034374 167.255 40.409374 167.77063Q39.8 168.27063 38.846874 168.27063Q37.6125 168.27063 36.89375 167.38Q36.05 166.3175 36.05 163.89563ZM37.128124 163.89563Q37.128124 166.005 37.628124 166.70813Q38.128124 167.41125 38.846874 167.41125Q39.58125 167.41125 40.065624 166.70813Q40.565624 166.005 40.565624 163.89563Q40.565624 161.77063 40.065624 161.08313Q39.58125 160.38 38.83125 160.38Q38.1125 160.38 37.675 160.98938Q37.128124 161.77063 37.128124 163.89563ZM43.503124 168.13L43.503124 159.53625L49.70625 159.53625L49.70625 160.55188L44.64375 160.55188L44.64375 163.17688L49.39375 163.17688L49.39375 164.1925L44.64375 164.1925L44.64375 167.11438L49.909374 167.11438L49.909374 168.13L43.503124 168.13ZM53.55 166.73938L53.55 164.38L51.221874 164.38L51.221874 163.39563L53.55 163.39563L53.55 161.0675L54.55 161.0675L54.55 163.39563L56.89375 163.39563L56.89375 164.38L54.55 164.38L54.55 166.73938L53.55 166.73938ZM58.1125 160.66125L58.1125 159.64563L63.675 159.64563L63.675 160.47375Q62.8625 161.34875 62.05 162.80188Q61.253124 164.23938 60.815624 165.77063Q60.4875 166.84875 60.409374 168.13L59.315624 168.13Q59.33125 167.11438 59.70625 165.67688Q60.096874 164.23938 60.8 162.91125Q61.51875 161.58313 62.33125 160.66125L58.1125 160.66125Z" fill-rule="nonzero"/><path fill="#000000" d="M23.01875 112.02333L21.971874 112.02333L21.971874 105.30458Q21.58125 105.663956 20.95625 106.038956Q20.346874 106.39833 19.8625 106.570206L19.8625 105.55458Q20.7375 105.132706 21.39375 104.55458Q22.065624 103.96083 22.346874 103.39833L23.01875 103.39833L23.01875 112.02333ZM26.64375 112.02333L26.64375 110.820206L27.846874 110.820206L27.846874 112.02333L26.64375 112.02333ZM29.05 107.788956Q29.05 106.257706 29.3625 105.33583Q29.675 104.39833 30.284374 103.89833Q30.909374 103.39833 31.846874 103.39833Q32.534374 103.39833 33.05 103.67958Q33.58125 103.96083 33.925 104.49208Q34.26875 105.007706 34.45625 105.757706Q34.64375 106.507706 34.64375 107.788956Q34.64375 109.30458 34.33125 110.226456Q34.034374 111.14833 33.409374 111.663956Q32.8 112.163956 31.846874 112.163956Q30.6125 112.163956 29.89375 111.27333Q29.05 110.21083 29.05 107.788956ZM30.128124 107.788956Q30.128124 109.89833 30.628124 110.601456Q31.128124 111.30458 31.846874 111.30458Q32.58125 111.30458 33.065624 110.601456Q33.565624 109.89833 33.565624 107.788956Q33.565624 105.663956 33.065624 104.976456Q32.58125 104.27333 31.83125 104.27333Q31.1125 104.27333 30.675 104.882706Q30.128124 105.663956 30.128124 107.788956ZM36.05 107.788956Q36.05 106.257706 36.3625 105.33583Q36.675 104.39833 37.284374 103.89833Q37.909374 103.39833 38.846874 103.39833Q39.534374 103.39833 40.05 103.67958Q40.58125 103.96083 40.925 104.49208Q41.26875 105.007706 41.45625 105.757706Q41.64375 106.507706 41.64375 107.788956Q41.64375 109.30458 41.33125 110.226456Q41.034374 111.14833 40.409374 111.663956Q39.8 112.163956 38.846874 112.163956Q37.6125 112.163956 36.89375 111.27333Q36.05 110.21083 36.05 107.788956ZM37.128124 107.788956Q37.128124 109.89833 37.628124 110.601456Q38.128124 111.30458 38.846874 111.30458Q39.58125 111.30458 40.065624 110.601456Q40.565624 109.89833 40.565624 107.788956Q40.565624 105.663956 40.065624 104.976456Q39.58125 104.27333 38.83125 104.27333Q38.1125 104.27333 37.675 104.882706Q37.128124 105.663956 37.128124 107.788956ZM43.503124 112.02333L43.503124 103.42958L49.70625 103.42958L49.70625 104.445206L44.64375 104.445206L44.64375 107.070206L49.39375 107.070206L49.39375 108.08583L44.64375 108.08583L44.64375 111.007706L49.909374 111.007706L49.909374 112.02333L43.503124 112.02333ZM53.55 110.632706L53.55 108.27333L51.221874 108.27333L51.221874 107.288956L53.55 107.288956L53.55 104.96083L54.55 104.96083L54.55 107.288956L56.89375 107.288956L56.89375 108.27333L54.55 108.27333L54.55 110.632706L53.55 110.632706ZM59.675 107.36708Q59.01875 107.11708 58.690624 106.67958Q58.378124 106.226456 58.378124 105.61708Q58.378124 104.67958 59.05 104.038956Q59.7375 103.39833 60.846874 103.39833Q61.971874 103.39833 62.659374 104.05458Q63.346874 104.71083 63.346874 105.64833Q63.346874 106.24208 63.034374 106.67958Q62.721874 107.11708 62.08125 107.36708Q62.878124 107.61708 63.284374 108.195206Q63.690624 108.77333 63.690624 109.570206Q63.690624 110.663956 62.909374 111.413956Q62.14375 112.163956 60.8625 112.163956Q59.596874 112.163956 58.815624 111.413956Q58.034374 110.663956 58.034374 109.538956Q58.034374 108.695206 58.45625 108.132706Q58.89375 107.570206 59.675 107.36708ZM59.45625 105.570206Q59.45625 106.17958 59.846874 106.570206Q60.253124 106.96083 60.878124 106.96083Q61.4875 106.96083 61.878124 106.58583Q62.26875 106.195206 62.26875 105.632706Q62.26875 105.05458 61.8625 104.663956Q61.45625 104.257706 60.8625 104.257706Q60.253124 104.257706 59.846874 104.64833Q59.45625 105.038956 59.45625 105.570206ZM59.128124 109.538956Q59.128124 109.99208 59.33125 110.413956Q59.55 110.83583 59.971874 111.070206Q60.39375 111.30458 60.878124 111.30458Q61.628124 111.30458 62.1125 110.820206Q62.6125 110.33583 62.6125 109.58583Q62.6125 108.820206 62.1125 108.320206Q61.6125 107.820206 60.846874 107.820206Q60.096874 107.820206 59.6125 108.320206Q59.128124 108.80458 59.128124 109.538956Z" fill-rule="nonzero"/><path fill="#000000" d="M23.01875 55.916668L21.971874 55.916668L21.971874 49.197918Q21.58125 49.557293 20.95625 49.932293Q20.346874 50.291668 19.8625 50.463543L19.8625 49.447918Q20.7375 49.026043 21.39375 48.447918Q22.065624 47.854168 22.346874 47.291668L23.01875 47.291668L23.01875 55.916668ZM26.64375 55.916668L26.64375 54.713543L27.846874 54.713543L27.846874 55.916668L26.64375 55.916668ZM34.596874 54.901043L34.596874 55.916668L28.909374 55.916668Q28.909374 55.541668 29.034374 55.182293Q29.253124 54.604168 29.721874 54.041668Q30.20625 53.479168 31.1125 52.744793Q32.51875 51.588543 33.003124 50.916668Q33.503124 50.244793 33.503124 49.651043Q33.503124 49.026043 33.05 48.604168Q32.596874 48.166668 31.878124 48.166668Q31.1125 48.166668 30.659374 48.619793Q30.20625 49.072918 30.190624 49.885418L29.1125 49.776043Q29.221874 48.557293 29.940624 47.932293Q30.675 47.291668 31.909374 47.291668Q33.14375 47.291668 33.8625 47.979168Q34.58125 48.666668 34.58125 49.682293Q34.58125 50.197918 34.3625 50.697918Q34.159374 51.182293 33.659374 51.744793Q33.175 52.291668 32.05 53.244793Q31.096874 54.041668 30.815624 54.338543Q30.55 54.619793 30.378124 54.901043L34.596874 54.901043ZM36.05 53.666668L37.159374 53.572918Q37.284374 54.385418 37.721874 54.791668Q38.175 55.197918 38.815624 55.197918Q39.565624 55.197918 40.096874 54.619793Q40.628124 54.041668 40.628124 53.104168Q40.628124 52.197918 40.1125 51.682293Q39.6125 51.151043 38.784374 51.151043Q38.284374 51.151043 37.8625 51.385418Q37.45625 51.619793 37.221874 51.979168L36.2375 51.854168L37.065624 47.447918L41.346874 47.447918L41.346874 48.447918L37.909374 48.447918L37.45625 50.760418Q38.221874 50.213543 39.065624 50.213543Q40.190624 50.213543 40.95625 50.994793Q41.7375 51.776043 41.7375 53.010418Q41.7375 54.166668 41.065624 55.026043Q40.2375 56.057293 38.815624 56.057293Q37.64375 56.057293 36.89375 55.401043Q36.159374 54.744793 36.05 53.666668ZM43.503124 55.916668L43.503124 47.322918L49.70625 47.322918L49.70625 48.338543L44.64375 48.338543L44.64375 50.963543L49.39375 50.963543L49.39375 51.979168L44.64375 51.979168L44.64375 54.901043L49.909374 54.901043L49.909374 55.916668L43.503124 55.916668ZM53.55 54.526043L53.55 52.166668L51.221874 52.166668L51.221874 51.182293L53.55 51.182293L53.55 48.854168L54.55 48.854168L54.55 51.182293L56.89375 51.182293L56.89375 52.166668L54.55 52.166668L54.55 54.526043L53.55 54.526043ZM59.675 51.260418Q59.01875 51.010418 58.690624 50.572918Q58.378124 50.119793 58.378124 49.510418Q58.378124 48.572918 59.05 47.932293Q59.7375 47.291668 60.846874 47.291668Q61.971874 47.291668 62.659374 47.947918Q63.346874 48.604168 63.346874 49.541668Q63.346874 50.135418 63.034374 50.572918Q62.721874 51.010418 62.08125 51.260418Q62.878124 51.510418 63.284374 52.088543Q63.690624 52.666668 63.690624 53.463543Q63.690624 54.557293 62.909374 55.307293Q62.14375 56.057293 60.8625 56.057293Q59.596874 56.057293 58.815624 55.307293Q58.034374 54.557293 58.034374 53.432293Q58.034374 52.588543 58.45625 52.026043Q58.89375 51.463543 59.675 51.260418ZM59.45625 49.463543Q59.45625 50.072918 59.846874 50.463543Q60.253124 50.854168 60.878124 50.854168Q61.4875 50.854168 61.878124 50.479168Q62.26875 50.088543 62.26875 49.526043Q62.26875 48.947918 61.8625 48.557293Q61.45625 48.151043 60.8625 48.151043Q60.253124 48.151043 59.846874 48.541668Q59.45625 48.932293 59.45625 49.463543ZM59.128124 53.432293Q59.128124 53.885418 59.33125 54.307293Q59.55 54.729168 59.971874 54.963543Q60.39375 55.197918 60.878124 55.197918Q61.628124 55.197918 62.1125 54.713543Q62.6125 54.229168 62.6125 53.479168Q62.6125 52.713543 62.1125 52.213543Q61.6125 51.713543 60.846874 51.713543Q60.096874 51.713543 59.6125 52.213543Q59.128124 52.697918 59.128124 53.432293Z" fill-rule="nonzero"/><path fill="#000000" d="M127.90571 345.2625Q127.90571 343.1219 129.04633 341.91876Q130.20258 340.7 132.01508 340.7Q133.2182 340.7 134.17133 341.27814Q135.12445 341.84064 135.62445 342.85626Q136.12445 343.8719 136.12445 345.16876Q136.12445 346.46564 135.5932 347.4969Q135.06195 348.52814 134.0932 349.0594Q133.14008 349.59064 132.01508 349.59064Q130.79633 349.59064 129.8432 349.0125Q128.89008 348.41876 128.39008 347.41876Q127.90571 346.40314 127.90571 345.2625ZM129.07758 345.27814Q129.07758 346.84064 129.9057 347.73126Q130.74945 348.6219 132.01508 348.6219Q133.29633 348.6219 134.12445 347.73126Q134.95258 346.825 134.95258 345.15314Q134.95258 344.10626 134.5932 343.325Q134.24945 342.54376 133.56195 342.1219Q132.87445 341.6844 132.0307 341.6844Q130.82758 341.6844 129.95258 342.5125Q129.07758 343.34064 129.07758 345.27814ZM137.20258 349.45L137.20258 340.85626L138.3432 340.85626L138.3432 348.4344L142.57758 348.4344L142.57758 349.45L137.20258 349.45ZM144.24945 349.45L144.24945 340.85626L147.2182 340.85626Q148.2182 340.85626 148.74945 340.98126Q149.48383 341.15314 149.99945 341.59064Q150.68695 342.16876 151.01508 343.075Q151.35883 343.96564 151.35883 345.10626Q151.35883 346.09064 151.12445 346.84064Q150.9057 347.59064 150.54633 348.09064Q150.18695 348.59064 149.74945 348.8719Q149.32758 349.15314 148.73383 349.3094Q148.14008 349.45 147.35883 349.45L144.24945 349.45ZM145.39008 348.4344L147.2182 348.4344Q148.07758 348.4344 148.56195 348.27814Q149.04633 348.1219 149.32758 347.825Q149.73383 347.4344 149.95258 346.7469Q150.18695 346.0594 150.18695 345.09064Q150.18695 343.7469 149.73383 343.02814Q149.29633 342.29376 148.67133 342.04376Q148.20258 341.8719 147.20258 341.8719L145.39008 341.8719L145.39008 348.4344ZM156.2182 349.45L156.2182 340.85626L157.93695 340.85626L159.9682 346.9344Q160.24945 347.79376 160.37445 348.21564Q160.51508 347.7469 160.82758 346.84064L162.89008 340.85626L164.42133 340.85626L164.42133 349.45L163.32758 349.45L163.32758 342.2625L160.82758 349.45L159.79633 349.45L157.31195 342.1375L157.31195 349.45L156.2182 349.45ZM165.24945 349.45L165.24945 340.85626L168.49945 340.85626Q169.3432 340.85626 169.79633 340.9344Q170.43695 341.04376 170.85883 341.34064Q171.29633 341.6375 171.54633 342.16876Q171.81195 342.7 171.81195 343.34064Q171.81195 344.4344 171.10883 345.2Q170.42133 345.95 168.5932 345.95L166.39008 345.95L166.39008 349.45L165.24945 349.45ZM166.39008 344.95L168.60883 344.95Q169.7182 344.95 170.17133 344.54376Q170.64008 344.1219 170.64008 343.3719Q170.64008 342.84064 170.35883 342.46564Q170.0932 342.075 169.6557 341.95Q169.35883 341.8719 168.5932 341.8719L166.39008 341.8719L166.39008 344.95Z" fill-rule="nonzero"/><path fill="#000000" d="M235.24461 349.45L234.19774 349.45L234.19774 342.73126Q233.80711 343.09064 233.18211 343.46564Q232.57274 343.825 232.08836 343.9969L232.08836 342.98126Q232.96336 342.5594 233.61961 341.98126Q234.29149 341.3875 234.57274 340.825L235.24461 340.825L235.24461 349.45ZM238.65086 349.45L238.65086 340.85626L239.79149 340.85626L239.79149 345.1219L244.05711 340.85626L245.60399 340.85626L241.99461 344.34064L245.76024 349.45L244.26024 349.45L241.19774 345.10626L239.79149 346.46564L239.79149 349.45L238.65086 349.45ZM252.15086 349.45L248.82274 340.85626L250.05711 340.85626L252.29149 347.10626Q252.55711 347.85626 252.74461 348.5125Q252.94774 347.8094 253.21336 347.10626L255.52586 340.85626L256.68213 340.85626L253.32274 349.45L252.15086 349.45ZM260.63525 348.6844Q260.0415 349.1844 259.49463 349.3875Q258.96338 349.59064 258.33838 349.59064Q257.30713 349.59064 256.76025 349.09064Q256.21338 348.59064 256.21338 347.8094Q256.21338 347.35626 256.4165 346.98126Q256.61963 346.59064 256.96338 346.3719Q257.30713 346.1375 257.729 346.02814Q258.02588 345.9344 258.6665 345.85626Q259.93213 345.71564 260.5415 345.4969Q260.5415 345.27814 260.5415 345.23126Q260.5415 344.575 260.24463 344.3094Q259.83838 343.96564 259.0415 343.96564Q258.30713 343.96564 257.94775 344.23126Q257.58838 344.48126 257.4165 345.1375L256.38525 344.9969Q256.52588 344.34064 256.854 343.9344Q257.18213 343.52814 257.7915 343.3094Q258.40088 343.09064 259.19775 343.09064Q259.99463 343.09064 260.49463 343.27814Q260.99463 343.46564 261.229 343.7469Q261.46338 344.02814 261.55713 344.46564Q261.604 344.73126 261.604 345.4344L261.604 346.84064Q261.604 348.3094 261.6665 348.7Q261.74463 349.09064 261.94775 349.45L260.83838 349.45Q260.68213 349.1219 260.63525 348.6844ZM260.5415 346.325Q259.96338 346.5594 258.82275 346.73126Q258.1665 346.825 257.90088 346.95Q257.63525 347.0594 257.479 347.27814Q257.33838 347.4969 257.33838 347.77814Q257.33838 348.2 257.65088 348.48126Q257.979 348.7625 258.58838 348.7625Q259.19775 348.7625 259.6665 348.4969Q260.15088 348.23126 260.36963 347.7625Q260.5415 347.40314 260.5415 346.71564L260.5415 346.325ZM263.5415 349.45L263.5415 340.85626L264.604 340.85626L264.604 349.45L263.5415 349.45ZM266.57275 342.075L266.57275 340.85626L267.63525 340.85626L267.63525 342.075L266.57275 342.075ZM266.57275 349.45L266.57275 343.23126L267.63525 343.23126L267.63525 349.45L266.57275 349.45ZM273.604 349.45L273.604 348.66876Q273.01025 349.59064 271.86963 349.59064Q271.11963 349.59064 270.49463 349.1844Q269.86963 348.7625 269.52588 348.02814Q269.18213 347.29376 269.18213 346.34064Q269.18213 345.41876 269.49463 344.65314Q269.80713 343.8875 270.43213 343.4969Q271.05713 343.09064 271.82275 343.09064Q272.38525 343.09064 272.82275 343.325Q273.26025 343.5594 273.5415 343.9344L273.5415 340.85626L274.58838 340.85626L274.58838 349.45L273.604 349.45ZM270.27588 346.34064Q270.27588 347.54376 270.77588 348.1375Q271.27588 348.71564 271.96338 348.71564Q272.65088 348.71564 273.13525 348.15314Q273.61963 347.59064 273.61963 346.4344Q273.61963 345.15314 273.11963 344.5594Q272.63525 343.96564 271.9165 343.96564Q271.21338 343.96564 270.74463 344.54376Q270.27588 345.10626 270.27588 346.34064ZM280.63525 348.6844Q280.0415 349.1844 279.49463 349.3875Q278.96338 349.59064 278.33838 349.59064Q277.30713 349.59064 276.76025 349.09064Q276.21338 348.59064 276.21338 347.8094Q276.21338 347.35626 276.4165 346.98126Q276.61963 346.59064 276.96338 346.3719Q277.30713 346.1375 277.729 346.02814Q278.02588 345.9344 278.6665 345.85626Q279.93213 345.71564 280.5415 345.4969Q280.5415 345.27814 280.5415 345.23126Q280.5415 344.575 280.24463 344.3094Q279.83838 343.96564 279.0415 343.96564Q278.30713 343.96564 277.94775 344.23126Q277.58838 344.48126 277.4165 345.1375L276.38525 344.9969Q276.52588 344.34064 276.854 343.9344Q277.18213 343.52814 277.7915 343.3094Q278.40088 343.09064 279.19775 343.09064Q279.99463 343.09064 280.49463 343.27814Q280.99463 343.46564 281.229 343.7469Q281.46338 344.02814 281.55713 344.46564Q281.604 344.73126 281.604 345.4344L281.604 346.84064Q281.604 348.3094 281.6665 348.7Q281.74463 349.09064 281.94775 349.45L280.83838 349.45Q280.68213 349.1219 280.63525 348.6844ZM280.5415 346.325Q279.96338 346.5594 278.82275 346.73126Q278.1665 346.825 277.90088 346.95Q277.63525 347.0594 277.479 347.27814Q277.33838 347.4969 277.33838 347.77814Q277.33838 348.2 277.65088 348.48126Q277.979 348.7625 278.58838 348.7625Q279.19775 348.7625 279.6665 348.4969Q280.15088 348.23126 280.36963 347.7625Q280.5415 347.40314 280.5415 346.71564L280.5415 346.325ZM285.86963 348.5125L286.02588 349.4344Q285.57275 349.52814 285.229 349.52814Q284.65088 349.52814 284.33838 349.35626Q284.02588 349.16876 283.88525 348.8719Q283.76025 348.575 283.76025 347.6219L283.76025 344.04376L282.99463 344.04376L282.99463 343.23126L283.76025 343.23126L283.76025 341.6844L284.80713 341.0594L284.80713 343.23126L285.86963 343.23126L285.86963 344.04376L284.80713 344.04376L284.80713 347.6844Q284.80713 348.1375 284.854 348.2625Q284.9165 348.3875 285.0415 348.46564Q285.1665 348.54376 285.40088 348.54376Q285.58838 348.54376 285.86963 348.5125ZM286.18213 346.34064Q286.18213 344.60626 287.13525 343.77814Q287.93213 343.09064 289.08838 343.09064Q290.36963 343.09064 291.18213 343.9344Q292.01025 344.7625 292.01025 346.2469Q292.01025 347.45 291.65088 348.1375Q291.2915 348.825 290.58838 349.21564Q289.90088 349.59064 289.08838 349.59064Q287.7915 349.59064 286.979 348.7625Q286.18213 347.91876 286.18213 346.34064ZM287.26025 346.34064Q287.26025 347.52814 287.77588 348.1219Q288.30713 348.71564 289.08838 348.71564Q289.88525 348.71564 290.40088 348.1219Q290.9165 347.52814 290.9165 346.3094Q290.9165 345.15314 290.38525 344.5594Q289.86963 343.96564 289.08838 343.96564Q288.30713 343.96564 287.77588 344.5594Q287.26025 345.1375 287.26025 346.34064ZM293.55713 349.45L293.55713 343.23126L294.51025 343.23126L294.51025 344.16876Q294.86963 343.5125 295.1665 343.3094Q295.479 343.09064 295.854 343.09064Q296.38525 343.09064 296.93213 343.41876L296.57275 344.40314Q296.18213 344.16876 295.80713 344.16876Q295.44775 344.16876 295.1665 344.3875Q294.90088 344.59064 294.7915 344.96564Q294.604 345.52814 294.604 346.1844L294.604 349.45L293.55713 349.45ZM297.15088 347.59064L298.18213 347.4344Q298.27588 348.0594 298.6665 348.3875Q299.07275 348.71564 299.80713 348.71564Q300.52588 348.71564 300.86963 348.4344Q301.229 348.1375 301.229 347.73126Q301.229 347.3719 300.9165 347.16876Q300.69775 347.02814 299.83838 346.8094Q298.68213 346.5125 298.229 346.3094Q297.7915 346.09064 297.55713 345.71564Q297.32275 345.34064 297.32275 344.8719Q297.32275 344.46564 297.51025 344.10626Q297.69775 343.7469 298.02588 343.5125Q298.27588 343.34064 298.69775 343.21564Q299.11963 343.09064 299.61963 343.09064Q300.33838 343.09064 300.88525 343.3094Q301.44775 343.5125 301.71338 343.8719Q301.979 344.23126 302.07275 344.825L301.0415 344.96564Q300.979 344.4969 300.63525 344.23126Q300.30713 343.95 299.68213 343.95Q298.96338 343.95 298.65088 344.2Q298.33838 344.4344 298.33838 344.7625Q298.33838 344.96564 298.46338 345.1219Q298.604 345.29376 298.86963 345.40314Q299.02588 345.46564 299.80713 345.66876Q300.93213 345.98126 301.36963 346.16876Q301.80713 346.35626 302.05713 346.71564Q302.30713 347.075 302.30713 347.6219Q302.30713 348.15314 301.99463 348.6219Q301.69775 349.075 301.11963 349.34064Q300.5415 349.59064 299.80713 349.59064Q298.58838 349.59064 297.94775 349.09064Q297.32275 348.575 297.15088 347.59064Z" fill-rule="nonzero"/><path fill="#000000" d="M349.1929 349.45L348.14603 349.45L348.14603 342.73126Q347.7554 343.09064 347.1304 343.46564Q346.52103 343.825 346.03665 343.9969L346.03665 342.98126Q346.91165 342.5594 347.5679 341.98126Q348.23978 341.3875 348.52103 340.825L349.1929 340.825L349.1929 349.45ZM352.22415 345.21564Q352.22415 343.6844 352.53665 342.7625Q352.84915 341.825 353.45853 341.325Q354.08353 340.825 355.02103 340.825Q355.70853 340.825 356.22415 341.10626Q356.7554 341.3875 357.09915 341.91876Q357.4429 342.4344 357.6304 343.1844Q357.8179 343.9344 357.8179 345.21564Q357.8179 346.73126 357.5054 347.65314Q357.20853 348.575 356.58353 349.09064Q355.97415 349.59064 355.02103 349.59064Q353.78665 349.59064 353.0679 348.7Q352.22415 347.6375 352.22415 345.21564ZM353.30228 345.21564Q353.30228 347.325 353.80228 348.02814Q354.30228 348.73126 355.02103 348.73126Q355.7554 348.73126 356.23978 348.02814Q356.73978 347.325 356.73978 345.21564Q356.73978 343.09064 356.23978 342.40314Q355.7554 341.7 355.0054 341.7Q354.28665 341.7 353.84915 342.3094Q353.30228 343.09064 353.30228 345.21564ZM359.59915 349.45L359.59915 340.85626L360.73978 340.85626L360.73978 345.1219L365.0054 340.85626L366.55228 340.85626L362.9429 344.34064L366.70853 349.45L365.20853 349.45L362.14603 345.10626L360.73978 346.46564L360.73978 349.45L359.59915 349.45ZM373.09915 349.45L369.77103 340.85626L371.0054 340.85626L373.23978 347.10626Q373.5054 347.85626 373.6929 348.5125Q373.89603 347.8094 374.16165 347.10626L376.47415 340.85626L377.6304 340.85626L374.27103 349.45L373.09915 349.45ZM381.58353 348.6844Q380.98978 349.1844 380.4429 349.3875Q379.91165 349.59064 379.28665 349.59064Q378.2554 349.59064 377.70853 349.09064Q377.16165 348.59064 377.16165 347.8094Q377.16165 347.35626 377.36478 346.98126Q377.5679 346.59064 377.91165 346.3719Q378.2554 346.1375 378.67728 346.02814Q378.97415 345.9344 379.61478 345.85626Q380.8804 345.71564 381.48978 345.4969Q381.48978 345.27814 381.48978 345.23126Q381.48978 344.575 381.1929 344.3094Q380.78665 343.96564 379.98978 343.96564Q379.2554 343.96564 378.89603 344.23126Q378.53665 344.48126 378.36478 345.1375L377.33353 344.9969Q377.47415 344.34064 377.80228 343.9344Q378.1304 343.52814 378.73978 343.3094Q379.34915 343.09064 380.14603 343.09064Q380.9429 343.09064 381.4429 343.27814Q381.9429 343.46564 382.17728 343.7469Q382.41165 344.02814 382.5054 344.46564Q382.55228 344.73126 382.55228 345.4344L382.55228 346.84064Q382.55228 348.3094 382.61478 348.7Q382.6929 349.09064 382.89603 349.45L381.78665 349.45Q381.6304 349.1219 381.58353 348.6844ZM381.48978 346.325Q380.91165 346.5594 379.77103 346.73126Q379.11478 346.825 378.84915 346.95Q378.58353 347.0594 378.42728 347.27814Q378.28665 347.4969 378.28665 347.77814Q378.28665 348.2 378.59915 348.48126Q378.92728 348.7625 379.53665 348.7625Q380.14603 348.7625 380.61478 348.4969Q381.09915 348.23126 381.3179 347.7625Q381.48978 347.40314 381.48978 346.71564L381.48978 346.325ZM384.48978 349.45L384.48978 340.85626L385.55228 340.85626L385.55228 349.45L384.48978 349.45ZM387.52103 342.075L387.52103 340.85626L388.58353 340.85626L388.58353 342.075L387.52103 342.075ZM387.52103 349.45L387.52103 343.23126L388.58353 343.23126L388.58353 349.45L387.52103 349.45ZM394.55228 349.45L394.55228 348.66876Q393.95853 349.59064 392.8179 349.59064Q392.0679 349.59064 391.4429 349.1844Q390.8179 348.7625 390.47415 348.02814Q390.1304 347.29376 390.1304 346.34064Q390.1304 345.41876 390.4429 344.65314Q390.7554 343.8875 391.3804 343.4969Q392.0054 343.09064 392.77103 343.09064Q393.33353 343.09064 393.77103 343.325Q394.20853 343.5594 394.48978 343.9344L394.48978 340.85626L395.53665 340.85626L395.53665 349.45L394.55228 349.45ZM391.22415 346.34064Q391.22415 347.54376 391.72415 348.1375Q392.22415 348.71564 392.91165 348.71564Q393.59915 348.71564 394.08353 348.15314Q394.5679 347.59064 394.5679 346.4344Q394.5679 345.15314 394.0679 344.5594Q393.58353 343.96564 392.86478 343.96564Q392.16165 343.96564 391.6929 344.54376Q391.22415 345.10626 391.22415 346.34064ZM401.58353 348.6844Q400.98978 349.1844 400.4429 349.3875Q399.91165 349.59064 399.28665 349.59064Q398.2554 349.59064 397.70853 349.09064Q397.16165 348.59064 397.16165 347.8094Q397.16165 347.35626 397.36478 346.98126Q397.5679 346.59064 397.91165 346.3719Q398.2554 346.1375 398.67728 346.02814Q398.97415 345.9344 399.61478 345.85626Q400.8804 345.71564 401.48978 345.4969Q401.48978 345.27814 401.48978 345.23126Q401.48978 344.575 401.1929 344.3094Q400.78665 343.96564 399.98978 343.96564Q399.2554 343.96564 398.89603 344.23126Q398.53665 344.48126 398.36478 345.1375L397.33353 344.9969Q397.47415 344.34064 397.80228 343.9344Q398.1304 343.52814 398.73978 343.3094Q399.34915 343.09064 400.14603 343.09064Q400.9429 343.09064 401.4429 343.27814Q401.9429 343.46564 402.17728 343.7469Q402.41165 344.02814 402.5054 344.46564Q402.55228 344.73126 402.55228 345.4344L402.55228 346.84064Q402.55228 348.3094 402.61478 348.7Q402.6929 349.09064 402.89603 349.45L401.78665 349.45Q401.6304 349.1219 401.58353 348.6844ZM401.48978 346.325Q400.91165 346.5594 399.77103 346.73126Q399.11478 346.825 398.84915 346.95Q398.58353 347.0594 398.42728 347.27814Q398.28665 347.4969 398.28665 347.77814Q398.28665 348.2 398.59915 348.48126Q398.92728 348.7625 399.53665 348.7625Q400.14603 348.7625 400.61478 348.4969Q401.09915 348.23126 401.3179 347.7625Q401.48978 347.40314 401.48978 346.71564L401.48978 346.325ZM406.8179 348.5125L406.97415 349.4344Q406.52103 349.52814 406.17728 349.52814Q405.59915 349.52814 405.28665 349.35626Q404.97415 349.16876 404.83353 348.8719Q404.70853 348.575 404.70853 347.6219L404.70853 344.04376L403.9429 344.04376L403.9429 343.23126L404.70853 343.23126L404.70853 341.6844L405.7554 341.0594L405.7554 343.23126L406.8179 343.23126L406.8179 344.04376L405.7554 344.04376L405.7554 347.6844Q405.7554 348.1375 405.80228 348.2625Q405.86478 348.3875 405.98978 348.46564Q406.11478 348.54376 406.34915 348.54376Q406.53665 348.54376 406.8179 348.5125ZM407.1304 346.34064Q407.1304 344.60626 408.08353 343.77814Q408.8804 343.09064 410.03665 343.09064Q411.3179 343.09064 412.1304 343.9344Q412.95853 344.7625 412.95853 346.2469Q412.95853 347.45 412.59915 348.1375Q412.23978 348.825 411.53665 349.21564Q410.84915 349.59064 410.03665 349.59064Q408.73978 349.59064 407.92728 348.7625Q407.1304 347.91876 407.1304 346.34064ZM408.20853 346.34064Q408.20853 347.52814 408.72415 348.1219Q409.2554 348.71564 410.03665 348.71564Q410.83353 348.71564 411.34915 348.1219Q411.86478 347.52814 411.86478 346.3094Q411.86478 345.15314 411.33353 344.5594Q410.8179 343.96564 410.03665 343.96564Q409.2554 343.96564 408.72415 344.5594Q408.20853 345.1375 408.20853 346.34064ZM414.5054 349.45L414.5054 343.23126L415.45853 343.23126L415.45853 344.16876Q415.8179 343.5125 416.11478 343.3094Q416.42728 343.09064 416.80228 343.09064Q417.33353 343.09064 417.8804 343.41876L417.52103 344.40314Q417.1304 344.16876 416.7554 344.16876Q416.39603 344.16876 416.11478 344.3875Q415.84915 344.59064 415.73978 344.96564Q415.55228 345.52814 415.55228 346.1844L415.55228 349.45L414.5054 349.45ZM418.09915 347.59064L419.1304 347.4344Q419.22415 348.0594 419.61478 348.3875Q420.02103 348.71564 420.7554 348.71564Q421.47415 348.71564 421.8179 348.4344Q422.17728 348.1375 422.17728 347.73126Q422.17728 347.3719 421.86478 347.16876Q421.64603 347.02814 420.78665 346.8094Q419.6304 346.5125 419.17728 346.3094Q418.73978 346.09064 418.5054 345.71564Q418.27103 345.34064 418.27103 344.8719Q418.27103 344.46564 418.45853 344.10626Q418.64603 343.7469 418.97415 343.5125Q419.22415 343.34064 419.64603 343.21564Q420.0679 343.09064 420.5679 343.09064Q421.28665 343.09064 421.83353 343.3094Q422.39603 343.5125 422.66165 343.8719Q422.92728 344.23126 423.02103 344.825L421.98978 344.96564Q421.92728 344.4969 421.58353 344.23126Q421.2554 343.95 420.6304 343.95Q419.91165 343.95 419.59915 344.2Q419.28665 344.4344 419.28665 344.7625Q419.28665 344.96564 419.41165 345.1219Q419.55228 345.29376 419.8179 345.40314Q419.97415 345.46564 420.7554 345.66876Q421.8804 345.98126 422.3179 346.16876Q422.7554 346.35626 423.0054 346.71564Q423.2554 347.075 423.2554 347.6219Q423.2554 348.15314 422.9429 348.6219Q422.64603 349.075 422.0679 349.34064Q421.48978 349.59064 420.7554 349.59064Q419.53665 349.59064 418.89603 349.09064Q418.27103 348.575 418.09915 347.59064Z" fill-rule="nonzero"/><path fill="#000000" d="M468.2193 348.4344L468.2193 349.45L462.5318 349.45Q462.5318 349.075 462.6568 348.71564Q462.87555 348.1375 463.3443 347.575Q463.82867 347.0125 464.73492 346.27814Q466.14117 345.1219 466.62555 344.45Q467.12555 343.77814 467.12555 343.1844Q467.12555 342.5594 466.67242 342.1375Q466.2193 341.7 465.50055 341.7Q464.73492 341.7 464.2818 342.15314Q463.82867 342.60626 463.81305 343.41876L462.73492 343.3094Q462.8443 342.09064 463.56305 341.46564Q464.29742 340.825 465.5318 340.825Q466.76617 340.825 467.48492 341.5125Q468.20367 342.2 468.20367 343.21564Q468.20367 343.73126 467.98492 344.23126Q467.7818 344.71564 467.2818 345.27814Q466.79742 345.825 465.67242 346.77814Q464.7193 347.575 464.43805 347.8719Q464.17242 348.15314 464.00055 348.4344L468.2193 348.4344ZM469.67242 345.21564Q469.67242 343.6844 469.98492 342.7625Q470.29742 341.825 470.9068 341.325Q471.5318 340.825 472.4693 340.825Q473.1568 340.825 473.67242 341.10626Q474.20367 341.3875 474.54742 341.91876Q474.89117 342.4344 475.07867 343.1844Q475.26617 343.9344 475.26617 345.21564Q475.26617 346.73126 474.95367 347.65314Q474.6568 348.575 474.0318 349.09064Q473.42242 349.59064 472.4693 349.59064Q471.23492 349.59064 470.51617 348.7Q469.67242 347.6375 469.67242 345.21564ZM470.75055 345.21564Q470.75055 347.325 471.25055 348.02814Q471.75055 348.73126 472.4693 348.73126Q473.20367 348.73126 473.68805 348.02814Q474.18805 347.325 474.18805 345.21564Q474.18805 343.09064 473.68805 342.40314Q473.20367 341.7 472.45367 341.7Q471.73492 341.7 471.29742 342.3094Q470.75055 343.09064 470.75055 345.21564ZM477.04742 349.45L477.04742 340.85626L478.18805 340.85626L478.18805 345.1219L482.45367 340.85626L484.00055 340.85626L480.39117 344.34064L484.1568 349.45L482.6568 349.45L479.5943 345.10626L478.18805 346.46564L478.18805 349.45L477.04742 349.45ZM490.54742 349.45L487.2193 340.85626L488.45367 340.85626L490.68805 347.10626Q490.95367 347.85626 491.14117 348.5125Q491.3443 347.8094 491.60992 347.10626L493.92242 340.85626L495.07867 340.85626L491.7193 349.45L490.54742 349.45ZM499.0318 348.6844Q498.43805 349.1844 497.89117 349.3875Q497.35992 349.59064 496.73492 349.59064Q495.70367 349.59064 495.1568 349.09064Q494.60992 348.59064 494.60992 347.8094Q494.60992 347.35626 494.81305 346.98126Q495.01617 346.59064 495.35992 346.3719Q495.70367 346.1375 496.12555 346.02814Q496.42242 345.9344 497.06305 345.85626Q498.32867 345.71564 498.93805 345.4969Q498.93805 345.27814 498.93805 345.23126Q498.93805 344.575 498.64117 344.3094Q498.23492 343.96564 497.43805 343.96564Q496.70367 343.96564 496.3443 344.23126Q495.98492 344.48126 495.81305 345.1375L494.7818 344.9969Q494.92242 344.34064 495.25055 343.9344Q495.57867 343.52814 496.18805 343.3094Q496.79742 343.09064 497.5943 343.09064Q498.39117 343.09064 498.89117 343.27814Q499.39117 343.46564 499.62555 343.7469Q499.85992 344.02814 499.95367 344.46564Q500.00055 344.73126 500.00055 345.4344L500.00055 346.84064Q500.00055 348.3094 500.06305 348.7Q500.14117 349.09064 500.3443 349.45L499.23492 349.45Q499.07867 349.1219 499.0318 348.6844ZM498.93805 346.325Q498.35992 346.5594 497.2193 346.73126Q496.56305 346.825 496.29742 346.95Q496.0318 347.0594 495.87555 347.27814Q495.73492 347.4969 495.73492 347.77814Q495.73492 348.2 496.04742 348.48126Q496.37555 348.7625 496.98492 348.7625Q497.5943 348.7625 498.06305 348.4969Q498.54742 348.23126 498.76617 347.7625Q498.93805 347.40314 498.93805 346.71564L498.93805 346.325ZM501.93805 349.45L501.93805 340.85626L503.00055 340.85626L503.00055 349.45L501.93805 349.45ZM504.9693 342.075L504.9693 340.85626L506.0318 340.85626L506.0318 342.075L504.9693 342.075ZM504.9693 349.45L504.9693 343.23126L506.0318 343.23126L506.0318 349.45L504.9693 349.45ZM512.00055 349.45L512.00055 348.66876Q511.4068 349.59064 510.26617 349.59064Q509.51617 349.59064 508.89117 349.1844Q508.26617 348.7625 507.92242 348.02814Q507.57867 347.29376 507.57867 346.34064Q507.57867 345.41876 507.89117 344.65314Q508.20367 343.8875 508.82867 343.4969Q509.45367 343.09064 510.2193 343.09064Q510.7818 343.09064 511.2193 343.325Q511.6568 343.5594 511.93805 343.9344L511.93805 340.85626L512.9849 340.85626L512.9849 349.45L512.00055 349.45ZM508.67242 346.34064Q508.67242 347.54376 509.17242 348.1375Q509.67242 348.71564 510.35992 348.71564Q511.04742 348.71564 511.5318 348.15314Q512.0162 347.59064 512.0162 346.4344Q512.0162 345.15314 511.51617 344.5594Q511.0318 343.96564 510.31305 343.96564Q509.60992 343.96564 509.14117 344.54376Q508.67242 345.10626 508.67242 346.34064ZM519.0318 348.6844Q518.43805 349.1844 517.8912 349.3875Q517.3599 349.59064 516.7349 349.59064Q515.7037 349.59064 515.1568 349.09064Q514.6099 348.59064 514.6099 347.8094Q514.6099 347.35626 514.81305 346.98126Q515.0162 346.59064 515.3599 346.3719Q515.7037 346.1375 516.12555 346.02814Q516.4224 345.9344 517.06305 345.85626Q518.3287 345.71564 518.93805 345.4969Q518.93805 345.27814 518.93805 345.23126Q518.93805 344.575 518.6412 344.3094Q518.2349 343.96564 517.43805 343.96564Q516.7037 343.96564 516.3443 344.23126Q515.9849 344.48126 515.81305 345.1375L514.7818 344.9969Q514.9224 344.34064 515.25055 343.9344Q515.5787 343.52814 516.18805 343.3094Q516.7974 343.09064 517.5943 343.09064Q518.3912 343.09064 518.8912 343.27814Q519.3912 343.46564 519.62555 343.7469Q519.8599 344.02814 519.9537 344.46564Q520.00055 344.73126 520.00055 345.4344L520.00055 346.84064Q520.00055 348.3094 520.06305 348.7Q520.1412 349.09064 520.3443 349.45L519.2349 349.45Q519.0787 349.1219 519.0318 348.6844ZM518.93805 346.325Q518.3599 346.5594 517.2193 346.73126Q516.56305 346.825 516.2974 346.95Q516.0318 347.0594 515.87555 347.27814Q515.7349 347.4969 515.7349 347.77814Q515.7349 348.2 516.0474 348.48126Q516.37555 348.7625 516.9849 348.7625Q517.5943 348.7625 518.06305 348.4969Q518.5474 348.23126 518.7662 347.7625Q518.93805 347.40314 518.93805 346.71564L518.93805 346.325ZM524.2662 348.5125L524.4224 349.4344Q523.9693 349.52814 523.62555 349.52814Q523.0474 349.52814 522.7349 349.35626Q522.4224 349.16876 522.2818 348.8719Q522.1568 348.575 522.1568 347.6219L522.1568 344.04376L521.3912 344.04376L521.3912 343.23126L522.1568 343.23126L522.1568 341.6844L523.2037 341.0594L523.2037 343.23126L524.2662 343.23126L524.2662 344.04376L523.2037 344.04376L523.2037 347.6844Q523.2037 348.1375 523.25055 348.2625Q523.31305 348.3875 523.43805 348.46564Q523.56305 348.54376 523.7974 348.54376Q523.9849 348.54376 524.2662 348.5125ZM524.5787 346.34064Q524.5787 344.60626 525.5318 343.77814Q526.3287 343.09064 527.4849 343.09064Q528.7662 343.09064 529.5787 343.9344Q530.4068 344.7625 530.4068 346.2469Q530.4068 347.45 530.0474 348.1375Q529.68805 348.825 528.9849 349.21564Q528.2974 349.59064 527.4849 349.59064Q526.18805 349.59064 525.37555 348.7625Q524.5787 347.91876 524.5787 346.34064ZM525.6568 346.34064Q525.6568 347.52814 526.1724 348.1219Q526.7037 348.71564 527.4849 348.71564Q528.2818 348.71564 528.7974 348.1219Q529.31305 347.52814 529.31305 346.3094Q529.31305 345.15314 528.7818 344.5594Q528.2662 343.96564 527.4849 343.96564Q526.7037 343.96564 526.1724 344.5594Q525.6568 345.1375 525.6568 346.34064ZM531.9537 349.45L531.9537 343.23126L532.9068 343.23126L532.9068 344.16876Q533.2662 343.5125 533.56305 343.3094Q533.87555 343.09064 534.25055 343.09064Q534.7818 343.09064 535.3287 343.41876L534.9693 344.40314Q534.5787 344.16876 534.2037 344.16876Q533.8443 344.16876 533.56305 344.3875Q533.2974 344.59064 533.18805 344.96564Q533.00055 345.52814 533.00055 346.1844L533.00055 349.45L531.9537 349.45ZM535.5474 347.59064L536.5787 347.4344Q536.6724 348.0594 537.06305 348.3875Q537.4693 348.71564 538.2037 348.71564Q538.9224 348.71564 539.2662 348.4344Q539.62555 348.1375 539.62555 347.73126Q539.62555 347.3719 539.31305 347.16876Q539.0943 347.02814 538.2349 346.8094Q537.0787 346.5125 536.62555 346.3094Q536.18805 346.09064 535.9537 345.71564Q535.7193 345.34064 535.7193 344.8719Q535.7193 344.46564 535.9068 344.10626Q536.0943 343.7469 536.4224 343.5125Q536.6724 343.34064 537.0943 343.21564Q537.5162 343.09064 538.0162 343.09064Q538.7349 343.09064 539.2818 343.3094Q539.8443 343.5125 540.1099 343.8719Q540.37555 344.23126 540.4693 344.825L539.43805 344.96564Q539.37555 344.4969 539.0318 344.23126Q538.7037 343.95 538.0787 343.95Q537.3599 343.95 537.0474 344.2Q536.7349 344.4344 536.7349 344.7625Q536.7349 344.96564 536.8599 345.1219Q537.00055 345.29376 537.2662 345.40314Q537.4224 345.46564 538.2037 345.66876Q539.3287 345.98126 539.7662 346.16876Q540.2037 346.35626 540.4537 346.71564Q540.7037 347.075 540.7037 347.6219Q540.7037 348.15314 540.3912 348.6219Q540.0943 349.075 539.5162 349.34064Q538.93805 349.59064 538.2037 349.59064Q536.9849 349.59064 536.3443 349.09064Q535.7193 348.575 535.5474 347.59064Z" fill-rule="nonzero"/><path fill="#4285f4" d="M167.5 20.55C167.5 19.997715 167.94771 19.55 168.5 19.55L178.5 19.55C179.05229 19.55 179.5 19.997715 179.5 20.55L179.5 30.55C179.5 31.102285 179.05229 31.55 178.5 31.55L168.5 31.55C167.94771 31.55 167.5 31.102285 167.5 30.55Z" fill-rule="nonzero"/><path fill="#1a1a1a" d="M190.875 29.55L187.54688 20.95625L188.78125 20.95625L191.01562 27.20625Q191.28125 27.95625 191.46875 28.6125Q191.67188 27.909374 191.9375 27.20625L194.25 20.95625L195.40625 20.95625L192.04688 29.55L190.875 29.55ZM199.35938 28.784374Q198.76562 29.284374 198.21875 29.4875Q197.6875 29.690624 197.0625 29.690624Q196.03125 29.690624 195.48438 29.190624Q194.9375 28.690624 194.9375 27.909374Q194.9375 27.45625 195.14062 27.08125Q195.34375 26.690624 195.6875 26.471874Q196.03125 26.2375 196.45312 26.128124Q196.75 26.034374 197.39062 25.95625Q198.65625 25.815624 199.26562 25.596874Q199.26562 25.378124 199.26562 25.33125Q199.26562 24.675 198.96875 24.409374Q198.5625 24.065624 197.76562 24.065624Q197.03125 24.065624 196.67188 24.33125Q196.3125 24.58125 196.14062 25.2375L195.10938 25.096874Q195.25 24.440624 195.57812 24.034374Q195.90625 23.628124 196.51562 23.409374Q197.125 23.190624 197.92188 23.190624Q198.71875 23.190624 199.21875 23.378124Q199.71875 23.565624 199.95312 23.846874Q200.1875 24.128124 200.28125 24.565624Q200.32812 24.83125 200.32812 25.534374L200.32812 26.940624Q200.32812 28.409374 200.39062 28.8Q200.46875 29.190624 200.67188 29.55L199.5625 29.55Q199.40625 29.221874 199.35938 28.784374ZM199.26562 26.425Q198.6875 26.659374 197.54688 26.83125Q196.89062 26.925 196.625 27.05Q196.35938 27.159374 196.20312 27.378124Q196.0625 27.596874 196.0625 27.878124Q196.0625 28.3 196.375 28.58125Q196.70312 28.8625 197.3125 28.8625Q197.92188 28.8625 198.39062 28.596874Q198.875 28.33125 199.09375 27.8625Q199.26562 27.503124 199.26562 26.815624L199.26562 26.425ZM202.26562 29.55L202.26562 20.95625L203.32812 20.95625L203.32812 29.55L202.26562 29.55ZM205.29688 22.175L205.29688 20.95625L206.35938 20.95625L206.35938 22.175L205.29688 22.175ZM205.29688 29.55L205.29688 23.33125L206.35938 23.33125L206.35938 29.55L205.29688 29.55ZM212.32812 29.55L212.32812 28.76875Q211.73438 29.690624 210.59375 29.690624Q209.84375 29.690624 209.21875 29.284374Q208.59375 28.8625 208.25 28.128124Q207.90625 27.39375 207.90625 26.440624Q207.90625 25.51875 208.21875 24.753124Q208.53125 23.9875 209.15625 23.596874Q209.78125 23.190624 210.54688 23.190624Q211.10938 23.190624 211.54688 23.425Q211.98438 23.659374 212.26562 24.034374L212.26562 20.95625L213.3125 20.95625L213.3125 29.55L212.32812 29.55ZM209.0 26.440624Q209.0 27.64375 209.5 28.2375Q210.0 28.815624 210.6875 28.815624Q211.375 28.815624 211.85938 28.253124Q212.34375 27.690624 212.34375 26.534374Q212.34375 25.253124 211.84375 24.659374Q211.35938 24.065624 210.64062 24.065624Q209.9375 24.065624 209.46875 24.64375Q209.0 25.20625 209.0 26.440624ZM219.35938 28.784374Q218.76562 29.284374 218.21875 29.4875Q217.6875 29.690624 217.0625 29.690624Q216.03125 29.690624 215.48438 29.190624Q214.9375 28.690624 214.9375 27.909374Q214.9375 27.45625 215.14062 27.08125Q215.34375 26.690624 215.6875 26.471874Q216.03125 26.2375 216.45312 26.128124Q216.75 26.034374 217.39062 25.95625Q218.65625 25.815624 219.26562 25.596874Q219.26562 25.378124 219.26562 25.33125Q219.26562 24.675 218.96875 24.409374Q218.5625 24.065624 217.76562 24.065624Q217.03125 24.065624 216.67188 24.33125Q216.3125 24.58125 216.14062 25.2375L215.10938 25.096874Q215.25 24.440624 215.57812 24.034374Q215.90625 23.628124 216.51562 23.409374Q217.125 23.190624 217.92188 23.190624Q218.71875 23.190624 219.21875 23.378124Q219.71875 23.565624 219.95312 23.846874Q220.1875 24.128124 220.28125 24.565624Q220.32812 24.83125 220.32812 25.534374L220.32812 26.940624Q220.32812 28.409374 220.39062 28.8Q220.46875 29.190624 220.67188 29.55L219.5625 29.55Q219.40625 29.221874 219.35938 28.784374ZM219.26562 26.425Q218.6875 26.659374 217.54688 26.83125Q216.89062 26.925 216.625 27.05Q216.35938 27.159374 216.20312 27.378124Q216.0625 27.596874 216.0625 27.878124Q216.0625 28.3 216.375 28.58125Q216.70312 28.8625 217.3125 28.8625Q217.92188 28.8625 218.39062 28.596874Q218.875 28.33125 219.09375 27.8625Q219.26562 27.503124 219.26562 26.815624L219.26562 26.425ZM224.59375 28.6125L224.75 29.534374Q224.29688 29.628124 223.95312 29.628124Q223.375 29.628124 223.0625 29.45625Q222.75 29.26875 222.60938 28.971874Q222.48438 28.675 222.48438 27.721874L222.48438 24.14375L221.71875 24.14375L221.71875 23.33125L222.48438 23.33125L222.48438 21.784374L223.53125 21.159374L223.53125 23.33125L224.59375 23.33125L224.59375 24.14375L223.53125 24.14375L223.53125 27.784374Q223.53125 28.2375 223.57812 28.3625Q223.64062 28.4875 223.76562 28.565624Q223.89062 28.64375 224.125 28.64375Q224.3125 28.64375 224.59375 28.6125ZM224.90625 26.440624Q224.90625 24.70625 225.85938 23.878124Q226.65625 23.190624 227.8125 23.190624Q229.09375 23.190624 229.90625 24.034374Q230.73438 24.8625 230.73438 26.346874Q230.73438 27.55 230.375 28.2375Q230.01562 28.925 229.3125 29.315624Q228.625 29.690624 227.8125 29.690624Q226.51562 29.690624 225.70312 28.8625Q224.90625 28.01875 224.90625 26.440624ZM225.98438 26.440624Q225.98438 27.628124 226.5 28.221874Q227.03125 28.815624 227.8125 28.815624Q228.60938 28.815624 229.125 28.221874Q229.64062 27.628124 229.64062 26.409374Q229.64062 25.253124 229.10938 24.659374Q228.59375 24.065624 227.8125 24.065624Q227.03125 24.065624 226.5 24.659374Q225.98438 25.2375 225.98438 26.440624ZM232.28125 29.55L232.28125 23.33125L233.23438 23.33125L233.23438 24.26875Q233.59375 23.6125 233.89062 23.409374Q234.20312 23.190624 234.57812 23.190624Q235.10938 23.190624 235.65625 23.51875L235.29688 24.503124Q234.90625 24.26875 234.53125 24.26875Q234.17188 24.26875 233.89062 24.4875Q233.625 24.690624 233.51562 25.065624Q233.32812 25.628124 233.32812 26.284374L233.32812 29.55L232.28125 29.55ZM235.875 27.690624L236.90625 27.534374Q237.0 28.159374 237.39062 28.4875Q237.79688 28.815624 238.53125 28.815624Q239.25 28.815624 239.59375 28.534374Q239.95312 28.2375 239.95312 27.83125Q239.95312 27.471874 239.64062 27.26875Q239.42188 27.128124 238.5625 26.909374Q237.40625 26.6125 236.95312 26.409374Q236.51562 26.190624 236.28125 25.815624Q236.04688 25.440624 236.04688 24.971874Q236.04688 24.565624 236.23438 24.20625Q236.42188 23.846874 236.75 23.6125Q237.0 23.440624 237.42188 23.315624Q237.84375 23.190624 238.34375 23.190624Q239.0625 23.190624 239.60938 23.409374Q240.17188 23.6125 240.4375 23.971874Q240.70312 24.33125 240.79688 24.925L239.76562 25.065624Q239.70312 24.596874 239.35938 24.33125Q239.03125 24.05 238.40625 24.05Q237.6875 24.05 237.375 24.3Q237.0625 24.534374 237.0625 24.8625Q237.0625 25.065624 237.1875 25.221874Q237.32812 25.39375 237.59375 25.503124Q237.75 25.565624 238.53125 25.76875Q239.65625 26.08125 240.09375 26.26875Q240.53125 26.45625 240.78125 26.815624Q241.03125 27.175 241.03125 27.721874Q241.03125 28.253124 240.71875 28.721874Q240.42188 29.175 239.84375 29.440624Q239.26562 29.690624 238.53125 29.690624Q237.3125 29.690624 236.67188 29.190624Q236.04688 28.675 235.875 27.690624Z" fill-rule="nonzero"/><path fill="#ea4335" d="M258.5 20.55C258.5 19.997715 258.94772 19.55 259.5 19.55L269.5 19.55C270.05228 19.55 270.5 19.997715 270.5 20.55L270.5 30.55C270.5 31.102285 270.05228 31.55 269.5 31.55L259.5 31.55C258.94772 31.55 258.5 31.102285 258.5 30.55Z" fill-rule="nonzero"/><path fill="#1a1a1a" d="M285.5625 26.534374L286.6875 26.83125Q286.32812 28.221874 285.40625 28.95625Q284.48438 29.690624 283.14062 29.690624Q281.75 29.690624 280.875 29.128124Q280.0 28.565624 279.54688 27.503124Q279.09375 26.425 279.09375 25.190624Q279.09375 23.846874 279.60938 22.846874Q280.125 21.846874 281.0625 21.33125Q282.01562 20.815624 283.15625 20.815624Q284.4375 20.815624 285.3125 21.471874Q286.20312 22.128124 286.54688 23.315624L285.42188 23.58125Q285.125 22.64375 284.54688 22.221874Q283.98438 21.784374 283.125 21.784374Q282.14062 21.784374 281.46875 22.26875Q280.8125 22.7375 280.53125 23.534374Q280.26562 24.33125 280.26562 25.190624Q280.26562 26.284374 280.57812 27.096874Q280.90625 27.909374 281.57812 28.315624Q282.25 28.721874 283.04688 28.721874Q284.0 28.721874 284.65625 28.175Q285.32812 27.628124 285.5625 26.534374ZM287.90625 26.440624Q287.90625 24.70625 288.85938 23.878124Q289.65625 23.190624 290.8125 23.190624Q292.09375 23.190624 292.90625 24.034374Q293.73438 24.8625 293.73438 26.346874Q293.73438 27.55 293.375 28.2375Q293.01562 28.925 292.3125 29.315624Q291.625 29.690624 290.8125 29.690624Q289.51562 29.690624 288.70312 28.8625Q287.90625 28.01875 287.90625 26.440624ZM288.98438 26.440624Q288.98438 27.628124 289.5 28.221874Q290.03125 28.815624 290.8125 28.815624Q291.60938 28.815624 292.125 28.221874Q292.64062 27.628124 292.64062 26.409374Q292.64062 25.253124 292.10938 24.659374Q291.59375 24.065624 290.8125 24.065624Q290.03125 24.065624 289.5 24.659374Q288.98438 25.2375 288.98438 26.440624ZM295.26562 29.55L295.26562 20.95625L296.32812 20.95625L296.32812 29.55L295.26562 29.55ZM302.32812 29.55L302.32812 28.76875Q301.73438 29.690624 300.59375 29.690624Q299.84375 29.690624 299.21875 29.284374Q298.59375 28.8625 298.25 28.128124Q297.90625 27.39375 297.90625 26.440624Q297.90625 25.51875 298.21875 24.753124Q298.53125 23.9875 299.15625 23.596874Q299.78125 23.190624 300.54688 23.190624Q301.10938 23.190624 301.54688 23.425Q301.98438 23.659374 302.26562 24.034374L302.26562 20.95625L303.3125 20.95625L303.3125 29.55L302.32812 29.55ZM299.0 26.440624Q299.0 27.64375 299.5 28.2375Q300.0 28.815624 300.6875 28.815624Q301.375 28.815624 301.85938 28.253124Q302.34375 27.690624 302.34375 26.534374Q302.34375 25.253124 301.84375 24.659374Q301.35938 24.065624 300.64062 24.065624Q299.9375 24.065624 299.46875 24.64375Q299.0 25.20625 299.0 26.440624ZM308.04688 26.784374L309.10938 26.690624Q309.1875 27.346874 309.46875 27.753124Q309.75 28.159374 310.32812 28.425Q310.92188 28.675 311.65625 28.675Q312.29688 28.675 312.79688 28.4875Q313.29688 28.284374 313.53125 27.95625Q313.78125 27.6125 313.78125 27.221874Q313.78125 26.815624 313.54688 26.51875Q313.3125 26.20625 312.78125 26.003124Q312.42188 25.8625 311.23438 25.58125Q310.0625 25.3 309.59375 25.05Q308.96875 24.721874 308.67188 24.253124Q308.375 23.76875 308.375 23.175Q308.375 22.534374 308.73438 21.971874Q309.10938 21.39375 309.8125 21.1125Q310.53125 20.815624 311.39062 20.815624Q312.34375 20.815624 313.07812 21.128124Q313.8125 21.425 314.20312 22.034374Q314.59375 22.628124 314.625 23.378124L313.53125 23.45625Q313.4375 22.64375 312.92188 22.2375Q312.42188 21.815624 311.4375 21.815624Q310.40625 21.815624 309.9375 22.190624Q309.46875 22.565624 309.46875 23.096874Q309.46875 23.565624 309.79688 23.8625Q310.125 24.159374 311.5 24.471874Q312.89062 24.784374 313.40625 25.01875Q314.15625 25.378124 314.51562 25.909374Q314.875 26.425 314.875 27.128124Q314.875 27.815624 314.48438 28.425Q314.09375 29.01875 313.35938 29.3625Q312.625 29.690624 311.70312 29.690624Q310.53125 29.690624 309.73438 29.3625Q308.95312 29.01875 308.5 28.33125Q308.0625 27.64375 308.04688 26.784374ZM318.59375 28.6125L318.75 29.534374Q318.29688 29.628124 317.95312 29.628124Q317.375 29.628124 317.0625 29.45625Q316.75 29.26875 316.60938 28.971874Q316.48438 28.675 316.48438 27.721874L316.48438 24.14375L315.71875 24.14375L315.71875 23.33125L316.48438 23.33125L316.48438 21.784374L317.53125 21.159374L317.53125 23.33125L318.59375 23.33125L318.59375 24.14375L317.53125 24.14375L317.53125 27.784374Q317.53125 28.2375 317.57812 28.3625Q317.64062 28.4875 317.76562 28.565624Q317.89062 28.64375 318.125 28.64375Q318.3125 28.64375 318.59375 28.6125ZM323.35938 28.784374Q322.76562 29.284374 322.21875 29.4875Q321.6875 29.690624 321.0625 29.690624Q320.03125 29.690624 319.48438 29.190624Q318.9375 28.690624 318.9375 27.909374Q318.9375 27.45625 319.14062 27.08125Q319.34375 26.690624 319.6875 26.471874Q320.03125 26.2375 320.45312 26.128124Q320.75 26.034374 321.39062 25.95625Q322.65625 25.815624 323.26562 25.596874Q323.26562 25.378124 323.26562 25.33125Q323.26562 24.675 322.96875 24.409374Q322.5625 24.065624 321.76562 24.065624Q321.03125 24.065624 320.67188 24.33125Q320.3125 24.58125 320.14062 25.2375L319.10938 25.096874Q319.25 24.440624 319.57812 24.034374Q319.90625 23.628124 320.51562 23.409374Q321.125 23.190624 321.92188 23.190624Q322.71875 23.190624 323.21875 23.378124Q323.71875 23.565624 323.95312 23.846874Q324.1875 24.128124 324.28125 24.565624Q324.32812 24.83125 324.32812 25.534374L324.32812 26.940624Q324.32812 28.409374 324.39062 28.8Q324.46875 29.190624 324.67188 29.55L323.5625 29.55Q323.40625 29.221874 323.35938 28.784374ZM323.26562 26.425Q322.6875 26.659374 321.54688 26.83125Q320.89062 26.925 320.625 27.05Q320.35938 27.159374 320.20312 27.378124Q320.0625 27.596874 320.0625 27.878124Q320.0625 28.3 320.375 28.58125Q320.70312 28.8625 321.3125 28.8625Q321.92188 28.8625 322.39062 28.596874Q322.875 28.33125 323.09375 27.8625Q323.26562 27.503124 323.26562 26.815624L323.26562 26.425ZM326.29688 29.55L326.29688 20.95625L327.35938 20.95625L327.35938 25.8625L329.84375 23.33125L331.21875 23.33125L328.82812 25.628124L331.45312 29.55L330.15625 29.55L328.09375 26.3625L327.35938 27.08125L327.35938 29.55L326.29688 29.55ZM332.29688 22.175L332.29688 20.95625L333.35938 20.95625L333.35938 22.175L332.29688 22.175ZM332.29688 29.55L332.29688 23.33125L333.35938 23.33125L333.35938 29.55L332.29688 29.55ZM335.29688 29.55L335.29688 23.33125L336.23438 23.33125L336.23438 24.20625Q336.92188 23.190624 338.21875 23.190624Q338.78125 23.190624 339.25 23.39375Q339.73438 23.596874 339.96875 23.925Q340.20312 24.253124 340.29688 24.690624Q340.34375 24.9875 340.34375 25.721874L340.34375 29.55L339.29688 29.55L339.29688 25.76875Q339.29688 25.1125 339.17188 24.8Q339.04688 24.4875 338.73438 24.3Q338.42188 24.096874 338.0 24.096874Q337.32812 24.096874 336.82812 24.534374Q336.34375 24.95625 336.34375 26.14375L336.34375 29.55L335.29688 29.55ZM342.09375 30.065624L343.125 30.221874Q343.1875 30.690624 343.48438 30.909374Q343.875 31.20625 344.54688 31.20625Q345.28125 31.20625 345.67188 30.909374Q346.07812 30.6125 346.21875 30.096874Q346.3125 29.76875 346.29688 28.7375Q345.60938 29.55 344.57812 29.55Q343.29688 29.55 342.59375 28.628124Q341.89062 27.690624 341.89062 26.409374Q341.89062 25.51875 342.20312 24.76875Q342.53125 24.003124 343.14062 23.596874Q343.75 23.190624 344.57812 23.190624Q345.6875 23.190624 346.40625 24.08125L346.40625 23.33125L347.375 23.33125L347.375 28.70625Q347.375 30.159374 347.07812 30.76875Q346.78125 31.378124 346.14062 31.721874Q345.5 32.08125 344.5625 32.08125Q343.45312 32.08125 342.76562 31.58125Q342.07812 31.08125 342.09375 30.065624ZM342.96875 26.33125Q342.96875 27.55 343.45312 28.1125Q343.9375 28.675 344.67188 28.675Q345.40625 28.675 345.89062 28.1125Q346.39062 27.55 346.39062 26.3625Q346.39062 25.221874 345.875 24.64375Q345.375 24.065624 344.65625 24.065624Q343.95312 24.065624 343.45312 24.64375Q342.96875 25.20625 342.96875 26.33125Z" fill-rule="nonzero"/><path fill="#fbbc04" d="M364.5 20.55C364.5 19.997715 364.94772 19.55 365.5 19.55L375.5 19.55C376.05228 19.55 376.5 19.997715 376.5 20.55L376.5 30.55C376.5 31.102285 376.05228 31.55 375.5 31.55L365.5 31.55C364.94772 31.55 364.5 31.102285 364.5 30.55Z" fill-rule="nonzero"/><path fill="#1a1a1a" d="M387.60938 29.55L387.60938 21.971874L384.78125 21.971874L384.78125 20.95625L391.59375 20.95625L391.59375 21.971874L388.75 21.971874L388.75 29.55L387.60938 29.55ZM392.28125 29.55L392.28125 23.33125L393.23438 23.33125L393.23438 24.26875Q393.59375 23.6125 393.89062 23.409374Q394.20312 23.190624 394.57812 23.190624Q395.10938 23.190624 395.65625 23.51875L395.29688 24.503124Q394.90625 24.26875 394.53125 24.26875Q394.17188 24.26875 393.89062 24.4875Q393.625 24.690624 393.51562 25.065624Q393.32812 25.628124 393.32812 26.284374L393.32812 29.55L392.28125 29.55ZM400.54688 27.55L401.64062 27.675Q401.39062 28.628124 400.6875 29.159374Q399.98438 29.690624 398.90625 29.690624Q397.54688 29.690624 396.73438 28.846874Q395.9375 28.003124 395.9375 26.4875Q395.9375 24.925 396.75 24.065624Q397.5625 23.190624 398.84375 23.190624Q400.09375 23.190624 400.875 24.034374Q401.67188 24.878124 401.67188 26.425Q401.67188 26.51875 401.67188 26.70625L397.03125 26.70625Q397.09375 27.7375 397.60938 28.284374Q398.125 28.815624 398.90625 28.815624Q399.48438 28.815624 399.89062 28.51875Q400.3125 28.20625 400.54688 27.55ZM397.09375 25.846874L400.5625 25.846874Q400.5 25.05 400.17188 24.659374Q399.65625 24.05 398.85938 24.05Q398.125 24.05 397.625 24.534374Q397.14062 25.01875 397.09375 25.846874ZM407.35938 28.784374Q406.76562 29.284374 406.21875 29.4875Q405.6875 29.690624 405.0625 29.690624Q404.03125 29.690624 403.48438 29.190624Q402.9375 28.690624 402.9375 27.909374Q402.9375 27.45625 403.14062 27.08125Q403.34375 26.690624 403.6875 26.471874Q404.03125 26.2375 404.45312 26.128124Q404.75 26.034374 405.39062 25.95625Q406.65625 25.815624 407.26562 25.596874Q407.26562 25.378124 407.26562 25.33125Q407.26562 24.675 406.96875 24.409374Q406.5625 24.065624 405.76562 24.065624Q405.03125 24.065624 404.67188 24.33125Q404.3125 24.58125 404.14062 25.2375L403.10938 25.096874Q403.25 24.440624 403.57812 24.034374Q403.90625 23.628124 404.51562 23.409374Q405.125 23.190624 405.92188 23.190624Q406.71875 23.190624 407.21875 23.378124Q407.71875 23.565624 407.95312 23.846874Q408.1875 24.128124 408.28125 24.565624Q408.32812 24.83125 408.32812 25.534374L408.32812 26.940624Q408.32812 28.409374 408.39062 28.8Q408.46875 29.190624 408.67188 29.55L407.5625 29.55Q407.40625 29.221874 407.35938 28.784374ZM407.26562 26.425Q406.6875 26.659374 405.54688 26.83125Q404.89062 26.925 404.625 27.05Q404.35938 27.159374 404.20312 27.378124Q404.0625 27.596874 404.0625 27.878124Q404.0625 28.3 404.375 28.58125Q404.70312 28.8625 405.3125 28.8625Q405.92188 28.8625 406.39062 28.596874Q406.875 28.33125 407.09375 27.8625Q407.26562 27.503124 407.26562 26.815624L407.26562 26.425ZM409.875 27.690624L410.90625 27.534374Q411.0 28.159374 411.39062 28.4875Q411.79688 28.815624 412.53125 28.815624Q413.25 28.815624 413.59375 28.534374Q413.95312 28.2375 413.95312 27.83125Q413.95312 27.471874 413.64062 27.26875Q413.42188 27.128124 412.5625 26.909374Q411.40625 26.6125 410.95312 26.409374Q410.51562 26.190624 410.28125 25.815624Q410.04688 25.440624 410.04688 24.971874Q410.04688 24.565624 410.23438 24.20625Q410.42188 23.846874 410.75 23.6125Q411.0 23.440624 411.42188 23.315624Q411.84375 23.190624 412.34375 23.190624Q413.0625 23.190624 413.60938 23.409374Q414.17188 23.6125 414.4375 23.971874Q414.70312 24.33125 414.79688 24.925L413.76562 25.065624Q413.70312 24.596874 413.35938 24.33125Q413.03125 24.05 412.40625 24.05Q411.6875 24.05 411.375 24.3Q411.0625 24.534374 411.0625 24.8625Q411.0625 25.065624 411.1875 25.221874Q411.32812 25.39375 411.59375 25.503124Q411.75 25.565624 412.53125 25.76875Q413.65625 26.08125 414.09375 26.26875Q414.53125 26.45625 414.78125 26.815624Q415.03125 27.175 415.03125 27.721874Q415.03125 28.253124 414.71875 28.721874Q414.42188 29.175 413.84375 29.440624Q413.26562 29.690624 412.53125 29.690624Q411.3125 29.690624 410.67188 29.190624Q410.04688 28.675 409.875 27.690624ZM421.375 29.55L421.375 28.628124Q420.64062 29.690624 419.39062 29.690624Q418.84375 29.690624 418.35938 29.4875Q417.89062 29.26875 417.65625 28.95625Q417.42188 28.628124 417.32812 28.159374Q417.26562 27.8625 417.26562 27.175L417.26562 23.33125L418.32812 23.33125L418.32812 26.784374Q418.32812 27.596874 418.39062 27.89375Q418.48438 28.3 418.79688 28.55Q419.125 28.784374 419.60938 28.784374Q420.07812 28.784374 420.48438 28.55Q420.90625 28.3 421.07812 27.878124Q421.26562 27.45625 421.26562 26.659374L421.26562 23.33125L422.3125 23.33125L422.3125 29.55L421.375 29.55ZM424.28125 29.55L424.28125 23.33125L425.23438 23.33125L425.23438 24.26875Q425.59375 23.6125 425.89062 23.409374Q426.20312 23.190624 426.57812 23.190624Q427.10938 23.190624 427.65625 23.51875L427.29688 24.503124Q426.90625 24.26875 426.53125 24.26875Q426.17188 24.26875 425.89062 24.4875Q425.625 24.690624 425.51562 25.065624Q425.32812 25.628124 425.32812 26.284374L425.32812 29.55L424.28125 29.55ZM428.25 31.940624L428.125 30.95625Q428.46875 31.05 428.73438 31.05Q429.07812 31.05 429.28125 30.925Q429.5 30.815624 429.64062 30.6125Q429.73438 30.440624 429.96875 29.815624Q429.98438 29.7375 430.0625 29.565624L427.6875 23.33125L428.82812 23.33125L430.125 26.925Q430.375 27.6125 430.57812 28.378124Q430.76562 27.64375 431.01562 26.95625L432.34375 23.33125L433.39062 23.33125L431.03125 29.659374Q430.64062 30.675 430.4375 31.065624Q430.15625 31.596874 429.78125 31.83125Q429.42188 32.08125 428.92188 32.08125Q428.625 32.08125 428.25 31.940624Z" fill-rule="nonzero"/></svg>